<svg xmlns="http://www.w3.org/2000/svg" width="10.931" height="11.544" viewBox="0 0 10.931 11.544">
  <g id="Group_93" data-name="Group 93" transform="translate(-13.069 -122.867)">
    <g id="Group_88" data-name="Group 88">
      <g id="Group_87" data-name="Group 87">
        <path id="Path_144" data-name="Path 144" d="M23.775,133.96H23.28v-7.18a.607.607,0,0,0-.606-.606h-1.1a.607.607,0,0,0-.607.606v7.18H19.707v-3.927a.607.607,0,0,0-.606-.606H18a.607.607,0,0,0-.606.606v3.927H16.133v-2.034a.607.607,0,0,0-.606-.606H14.422a.607.607,0,0,0-.606.606v2.034H13.3a.225.225,0,1,0,0,.451h10.48a.225.225,0,0,0,0-.451Zm-8.093,0H14.267v-2.034a.155.155,0,0,1,.155-.155h1.105a.155.155,0,0,1,.155.155v2.034Zm3.574,0H17.84v-3.927a.156.156,0,0,1,.155-.155H19.1a.156.156,0,0,1,.155.155Zm3.573,0H21.413v-7.18a.155.155,0,0,1,.156-.155h1.1a.155.155,0,0,1,.155.155v7.18Z" fill="gray"/>
      </g>
    </g>
    <g id="Group_90" data-name="Group 90">
      <g id="Group_89" data-name="Group 89">
        <path id="Path_145" data-name="Path 145" d="M23.279,123.1a.223.223,0,0,0-.236-.236H21.668a.226.226,0,1,0,0,.451h.842l-2.229,2.229-.84-.841a.229.229,0,0,0-.16-.066.225.225,0,0,0-.159.066l-4.054,4.054a.226.226,0,0,0,.16.385.223.223,0,0,0,.159-.066l3.894-3.894.841.84a.226.226,0,0,0,.319,0l2.388-2.388v.762a.226.226,0,1,0,.451,0v-1.3Z" fill="gray"/>
      </g>
    </g>
    <g id="Group_92" data-name="Group 92">
      <g id="Group_91" data-name="Group 91">
        <circle id="Ellipse_25" data-name="Ellipse 25" cx="0.225" cy="0.225" r="0.225" transform="translate(14.242 129.48)" fill="gray"/>
      </g>
    </g>
  </g>
</svg>
