<svg xmlns="http://www.w3.org/2000/svg" width="13.751" height="11.979" viewBox="0 0 13.751 11.979">
  <g id="Group_86" data-name="Group 86" transform="translate(-12.191 -104.021)">
    <path id="Path_140" data-name="Path 140" d="M19.067,108.695a2.337,2.337,0,1,0-2.337-2.337A2.34,2.34,0,0,0,19.067,108.695Zm0-3.868a1.531,1.531,0,1,1-1.531,1.531A1.533,1.533,0,0,1,19.067,104.827Z" fill="gray"/>
    <path id="Path_141" data-name="Path 141" d="M23.794,108.695a1.478,1.478,0,1,0-1.478-1.478A1.479,1.479,0,0,0,23.794,108.695Zm0-2.149a.672.672,0,1,1-.672.671A.672.672,0,0,1,23.794,106.546Z" fill="gray"/>
    <path id="Path_142" data-name="Path 142" d="M24.119,109.608H23.5a1.825,1.825,0,0,0-1.657,1.057,3.244,3.244,0,0,0-2.4-1.057h-.751a3.242,3.242,0,0,0-2.4,1.057,1.827,1.827,0,0,0-1.657-1.057h-.623a1.82,1.82,0,0,0-1.824,1.812v2.934a.789.789,0,0,0,.79.787h2.464a.941.941,0,0,0,.936.859h5.371a.943.943,0,0,0,.937-.859h2.435a.818.818,0,0,0,.818-.815V111.42a1.82,1.82,0,0,0-1.823-1.812ZM13,111.42a1.013,1.013,0,0,1,1.018-1.006h.623a1.013,1.013,0,0,1,1.018,1.006v.276a6.7,6.7,0,0,0-.215,2.639H13Zm8.89,3.639a.135.135,0,0,1-.135.135H16.381a.134.134,0,0,1-.134-.135v-2.2a2.446,2.446,0,0,1,2.444-2.444h.751a2.447,2.447,0,0,1,2.445,2.444Zm3.25-.733c0,.014.15.009-2.445.009a6.69,6.69,0,0,0-.214-2.639v-.276a1.013,1.013,0,0,1,1.018-1.006h.623a1.013,1.013,0,0,1,1.018,1.006Z" fill="gray"/>
    <path id="Path_143" data-name="Path 143" d="M14.34,108.695a1.478,1.478,0,1,0-1.478-1.478A1.479,1.479,0,0,0,14.34,108.695Zm0-2.149a.672.672,0,1,1-.672.671A.672.672,0,0,1,14.34,106.546Z" fill="gray"/>
  </g>
</svg>
