<svg xmlns="http://www.w3.org/2000/svg" width="11.545" height="11.546" viewBox="0 0 11.545 11.546">
  <g id="Group_109" data-name="Group 109" transform="translate(-12.455 -162.976)">
    <g id="Group_102" data-name="Group 102">
      <g id="Group_101" data-name="Group 101">
        <path id="Path_149" data-name="Path 149" d="M23.976,170.069l-.507-1.32.507-1.321a.362.362,0,0,0-.11-.41l-1.1-.891-.222-1.4a.363.363,0,0,0-.3-.3l-1.4-.222-.891-1.1a.363.363,0,0,0-.41-.11l-1.32.508L16.906,163a.361.361,0,0,0-.41.11l-.89,1.1-1.4.222a.361.361,0,0,0-.3.3l-.222,1.4-1.1.89a.364.364,0,0,0-.11.41l.507,1.321-.507,1.321a.362.362,0,0,0,.11.409l1.1.89.222,1.4a.362.362,0,0,0,.3.3l1.4.222.89,1.1a.359.359,0,0,0,.41.109l1.321-.506,1.321.506a.362.362,0,0,0,.41-.109l.89-1.1,1.4-.222a.361.361,0,0,0,.3-.3l.223-1.4,1.1-.89A.362.362,0,0,0,23.976,170.069Zm-1.231-1.191.462,1.2-1,.812a.365.365,0,0,0-.129.224l-.2,1.275-1.275.2a.36.36,0,0,0-.223.129l-.811,1-1.2-.463a.388.388,0,0,0-.13-.024.356.356,0,0,0-.129.024l-1.2.463-.813-1a.362.362,0,0,0-.224-.129l-1.275-.2-.2-1.275a.365.365,0,0,0-.129-.224l-1-.811.462-1.205a.361.361,0,0,0,0-.259l-.462-1.206,1-.813a.36.36,0,0,0,.129-.223l.2-1.275,1.275-.2a.362.362,0,0,0,.224-.129l.812-1,1.2.462a.359.359,0,0,0,.258,0l1.2-.462.813,1a.356.356,0,0,0,.223.13l1.275.2.2,1.275a.362.362,0,0,0,.129.224l1,.813-.462,1.205A.359.359,0,0,0,22.745,168.878Z" fill="gray"/>
      </g>
    </g>
    <g id="Group_104" data-name="Group 104">
      <g id="Group_103" data-name="Group 103">
        <path id="Path_150" data-name="Path 150" d="M17.144,165.862a1.082,1.082,0,1,0,1.083,1.083A1.084,1.084,0,0,0,17.144,165.862Zm0,1.444a.361.361,0,1,1,.361-.361A.361.361,0,0,1,17.144,167.306Z" fill="gray"/>
      </g>
    </g>
    <g id="Group_106" data-name="Group 106">
      <g id="Group_105" data-name="Group 105">
        <path id="Path_151" data-name="Path 151" d="M19.309,169.47a1.082,1.082,0,1,0,1.082,1.083A1.084,1.084,0,0,0,19.309,169.47Zm0,1.443a.36.36,0,1,1,.361-.36A.361.361,0,0,1,19.309,170.913Z" fill="gray"/>
      </g>
    </g>
    <g id="Group_108" data-name="Group 108">
      <g id="Group_107" data-name="Group 107">
        <path id="Path_152" data-name="Path 152" d="M20.241,165.93a.361.361,0,0,0-.5.084l-3.608,5.051a.361.361,0,0,0,.587.419l3.607-5.051A.36.36,0,0,0,20.241,165.93Z" fill="gray"/>
      </g>
    </g>
  </g>
</svg>
