<svg xmlns="http://www.w3.org/2000/svg" width="11.085" height="10.536" viewBox="0 0 11.085 10.536">
  <g id="Group_74" data-name="Group 74" transform="translate(-12.915 -45.675)">
    <g id="Group_73" data-name="Group 73">
      <path id="Path_133" data-name="Path 133" d="M23.814,50.356l-.937-.853v-2.83a.326.326,0,0,0-.326-.326H20.3a.326.326,0,0,0-.326.326v.182L18.84,45.824a.565.565,0,0,0-.765,0L13.1,50.356a.569.569,0,0,0,.383.989h.794v4.54a.326.326,0,0,0,.326.326H17.33a.326.326,0,0,0,.326-.326V53.128h1.6v2.757a.326.326,0,0,0,.326.326h2.726a.325.325,0,0,0,.325-.326v-4.54h.8a.569.569,0,0,0,.383-.989Zm-1.5.337a.325.325,0,0,0-.326.326v4.54H19.911V52.8a.326.326,0,0,0-.326-.326H17.33A.326.326,0,0,0,17,52.8v2.757H14.93v-4.54a.326.326,0,0,0-.326-.326h-.9l4.758-4.336,1.62,1.477a.326.326,0,0,0,.545-.241V47h1.6v2.648a.327.327,0,0,0,.107.241l.883.805Z" fill="#4d4d4d"/>
    </g>
  </g>
</svg>
