<svg xmlns="http://www.w3.org/2000/svg" width="10.289" height="10.289" viewBox="0 0 10.289 10.289">
  <g id="Group_100" data-name="Group 100" transform="translate(-13.711 -143.228)">
    <g id="Group_95" data-name="Group 95">
      <g id="Group_94" data-name="Group 94">
        <path id="Path_146" data-name="Path 146" d="M23.729,152.434a.273.273,0,0,1-.1-.018l-7.04-2.707a.271.271,0,0,1-.174-.253v-3.249a.271.271,0,0,1,.174-.253l7.04-2.708A.272.272,0,0,1,24,143.5v8.665a.27.27,0,0,1-.271.27ZM16.96,149.27l6.5,2.5v-7.876l-6.5,2.5Z" fill="gray"/>
      </g>
    </g>
    <g id="Group_97" data-name="Group 97">
      <g id="Group_96" data-name="Group 96">
        <path id="Path_147" data-name="Path 147" d="M16.689,149.727H14.794a1.084,1.084,0,0,1-1.083-1.083v-1.625a1.084,1.084,0,0,1,1.083-1.083h1.895a.271.271,0,0,1,.271.271v3.249A.271.271,0,0,1,16.689,149.727Zm-1.895-3.25a.542.542,0,0,0-.542.542v1.625a.542.542,0,0,0,.542.541h1.624v-2.708Z" fill="gray"/>
      </g>
    </g>
    <g id="Group_99" data-name="Group 99">
      <g id="Group_98" data-name="Group 98">
        <path id="Path_148" data-name="Path 148" d="M17.772,153.517H16.148a.27.27,0,0,1-.268-.232l-.542-3.791a.271.271,0,0,1,.23-.306.274.274,0,0,1,.306.23l.509,3.558h1.086l-.362-3.224a.272.272,0,0,1,.239-.3.276.276,0,0,1,.3.239l.4,3.525a.27.27,0,0,1-.269.3Z" fill="gray"/>
      </g>
    </g>
  </g>
</svg>
