<svg xmlns="http://www.w3.org/2000/svg" width="9.937" height="12.532" viewBox="0 0 9.937 12.532">
  <g id="Group_84" data-name="Group 84" transform="translate(-14.147 -63.468)">
    <g id="Group_81" data-name="Group 81">
      <g id="Group_80" data-name="Group 80">
        <path id="Path_136" data-name="Path 136" d="M24.078,73.8l-.56-7.052a.881.881,0,0,0-.875-.81h-1.1v-.05a2.422,2.422,0,0,0-4.845,0v.05H15.588a.881.881,0,0,0-.875.809l-.56,7.054A2.041,2.041,0,0,0,16.188,76h5.855a2.042,2.042,0,0,0,2.035-2.2ZM17.427,65.89a1.689,1.689,0,0,1,3.377,0v.05H17.427ZM23,74.847a1.294,1.294,0,0,1-.959.419H16.188a1.307,1.307,0,0,1-1.3-1.4l.56-7.054a.143.143,0,0,1,.143-.133h1.105v.9a.367.367,0,0,0,.734,0v-.9H20.8v.9a.367.367,0,0,0,.734,0v-.9h1.1a.144.144,0,0,1,.143.134l.56,7.052A1.293,1.293,0,0,1,23,74.847Z" fill="#666"/>
      </g>
    </g>
    <g id="Group_83" data-name="Group 83">
      <g id="Group_82" data-name="Group 82">
        <path id="Path_137" data-name="Path 137" d="M20.769,69.692a.368.368,0,0,0-.519,0l-1.639,1.639-.63-.63a.367.367,0,0,0-.519.519l.89.889a.363.363,0,0,0,.259.108.367.367,0,0,0,.26-.108l1.9-1.9A.368.368,0,0,0,20.769,69.692Z" fill="#666"/>
      </g>
    </g>
  </g>
</svg>
