<svg xmlns="http://www.w3.org/2000/svg" width="11.105" height="11.103" viewBox="0 0 11.105 11.103">
  <g id="Group_85" data-name="Group 85" transform="translate(-13.408 -84.897)">
    <path id="Path_138" data-name="Path 138" d="M23.318,84.9H19.1a.325.325,0,0,0-.23.095l-5.115,5.115a1.2,1.2,0,0,0,0,1.69l3.854,3.854a1.187,1.187,0,0,0,.845.349h0a1.191,1.191,0,0,0,.846-.349l5.115-5.115a.33.33,0,0,0,.1-.23V86.092A1.2,1.2,0,0,0,23.318,84.9Zm.544,5.274-5.02,5.02a.548.548,0,0,1-.77,0l-3.854-3.854a.546.546,0,0,1,0-.77l5.02-5.02h4.08a.545.545,0,0,1,.544.545Z" fill="gray"/>
    <path id="Path_139" data-name="Path 139" d="M21.645,86.742a1.023,1.023,0,1,0,.723.3A1.014,1.014,0,0,0,21.645,86.742Zm.263,1.285a.372.372,0,1,1,.109-.263A.369.369,0,0,1,21.908,88.027Z" fill="gray"/>
  </g>
</svg>
